<svg xmlns="http://www.w3.org/2000/svg" viewBox="0 0 512 512" width="512" height="512">
  <rect width="512" height="512" rx="108" fill="#1e1e2e"/>
  
    <!-- Tail -->
    <path d="M102,252 Q76,220 94,196" stroke="#f97316" stroke-width="18" fill="none" stroke-linecap="round"/>

    <!-- Back legs (darker for depth) -->
    <rect x="125" y="340" width="30" height="74" rx="12" fill="#e5690e"/>
    <rect x="167" y="340" width="30" height="74" rx="12" fill="#e5690e"/>

    <!-- Body -->
    <ellipse cx="230" cy="284" rx="130" ry="76" fill="#f97316"/>

    <!-- Front legs -->
    <rect x="282" y="340" width="30" height="74" rx="12" fill="#f97316"/>
    <rect x="322" y="340" width="30" height="74" rx="12" fill="#f97316"/>

    <!-- Neck -->
    <path d="M290,232 C298,180 312,142 320,112 L356,112 C348,142 336,180 330,232 Z" fill="#f97316"/>

    <!-- Head -->
    <ellipse cx="343" cy="100" rx="44" ry="34" fill="#f97316"/>

    <!-- Snout -->
    <ellipse cx="382" cy="112" rx="22" ry="16" fill="#f97316"/>

    <!-- Left ear -->
    <polygon points="318,78 304,26 336,68" fill="#f97316"/>
    <polygon points="320,75 310,38 332,68" fill="#e06510"/>

    <!-- Right ear -->
    <polygon points="352,72 356,18 370,64" fill="#f97316"/>
    <polygon points="354,70 356,30 366,64" fill="#e06510"/>

    <!-- Eye -->
    <circle cx="360" cy="94" r="8" fill="#1e1e2e"/>
    <circle cx="362" cy="92" r="3" fill="rgba(255,255,255,0.5)"/>

    <!-- Nostril -->
    <circle cx="396" cy="112" r="3.5" fill="#d05a08"/>

    <!-- Mouth -->
    <path d="M388,122 Q395,128 391,126" stroke="#d05a08" stroke-width="2.5" fill="none" stroke-linecap="round"/>
  
</svg>